<svg xmlns="http://www.w3.org/2000/svg" viewBox="0 0 242.81 73.36"><defs><style>.cls-1{fill:#58595b;}</style></defs><g id="Layer_2" data-name="Layer 2"><g id="Layer_1-2" data-name="Layer 1"><path class="cls-1" d="M10.7,26.73A15.75,15.75,0,0,1,18,24.61a26.19,26.19,0,0,1,7.36.75,29.12,29.12,0,0,1,6.31,2.35,17.19,17.19,0,0,1,4,2.7l-2.66,7.5-.61-.28a14.25,14.25,0,0,0-2.8-6.37,15.08,15.08,0,0,0-5.21-4.36,14.54,14.54,0,0,0-6.55-1.57,12.69,12.69,0,0,0-6.78,1.94,10.12,10.12,0,0,0-3.51,4,5.56,5.56,0,0,0-.2,3.82,8.86,8.86,0,0,0,2.18,3.51,21.49,21.49,0,0,0,3.68,3.07,37.64,37.64,0,0,0,4.29,2.49,37.27,37.27,0,0,0,4,1.7,38.23,38.23,0,0,1,6.78,3.27,20.36,20.36,0,0,1,5.49,4.74,10.2,10.2,0,0,1,2.25,6q.13,3.3-2.93,7.19a16,16,0,0,1-5.28,4.23,19.42,19.42,0,0,1-6.21,1.8A25.15,25.15,0,0,1,15.1,73a32.69,32.69,0,0,1-6.2-1.5,31.82,31.82,0,0,1-5.25-2.35A17.17,17.17,0,0,1,0,66.54l1.91-8.05h.68a10.5,10.5,0,0,0,2.18,4.67A21.08,21.08,0,0,0,9.1,67.29a25.31,25.31,0,0,0,5.66,3,21.27,21.27,0,0,0,6.13,1.4A14.57,14.57,0,0,0,26.65,71a9.5,9.5,0,0,0,4.57-3.48,7.87,7.87,0,0,0,1.67-4.12,7.34,7.34,0,0,0-.75-3.69,10.53,10.53,0,0,0-2.52-3.2A24.63,24.63,0,0,0,26,53.86a29.81,29.81,0,0,0-4-2,34,34,0,0,0-3.68-1.33,25.91,25.91,0,0,1-5.49-2.36,19.63,19.63,0,0,1-4.4-3.37,14.35,14.35,0,0,1-2.83-4.16A9.86,9.86,0,0,1,4.77,36a10.23,10.23,0,0,1,1.54-4.7A16.44,16.44,0,0,1,10.7,26.73Z"/><path class="cls-1" d="M45.47,28.09h5.38A9.08,9.08,0,0,1,50,32a15,15,0,0,1-2.22,3.41,18.36,18.36,0,0,1-2.93,2.72,15.18,15.18,0,0,1-3,1.81H56.65v.61h-8V60.4a21.46,21.46,0,0,0,.75,6.27,8.73,8.73,0,0,0,1.91,3.55A3.75,3.75,0,0,0,55,71.44a5.57,5.57,0,0,0,1.87-.75,7.46,7.46,0,0,0,1.64-1.36,12.85,12.85,0,0,0,1.74-2.52A14.88,14.88,0,0,0,61.35,64l.61.14A14.28,14.28,0,0,1,59.68,69a9.79,9.79,0,0,1-4.12,3.3,8.52,8.52,0,0,1-4.4.72,7,7,0,0,1-4-1.81,9.93,9.93,0,0,1-2.86-4.09,17.65,17.65,0,0,1-1.09-6.68V40.56h-4V40a4.53,4.53,0,0,0,2.35-.68,6.21,6.21,0,0,0,2-2.11A12.52,12.52,0,0,0,45,33.48,24.72,24.72,0,0,0,45.47,28.09Z"/><path class="cls-1" d="M96.11,72.67H87.73V72c.5,0,.87-.43,1.12-1.3a12.86,12.86,0,0,0,.38-3.47V55.36c-.23,1.5-.51,3-.85,4.5a29.34,29.34,0,0,1-1.33,4.29,23.87,23.87,0,0,1-1.91,3.78,13.11,13.11,0,0,1-2.52,3,10,10,0,0,1-5.25,2.38,9.24,9.24,0,0,1-5.18-.78,9.84,9.84,0,0,1-4-3.51,10.25,10.25,0,0,1-1.6-5.86V45.4a4.31,4.31,0,0,0-.24-1.6,2.85,2.85,0,0,0-.58-.92,1.41,1.41,0,0,0-.75-.41v-.68L72,40v22.5a11,11,0,0,0,.86,4.15,9.81,9.81,0,0,0,2.31,3.51,5,5,0,0,0,7.4-.1A13.89,13.89,0,0,0,86,65a35.44,35.44,0,0,0,2-6.55,57.27,57.27,0,0,0,1-7c.18-2.32.27-4.36.27-6.14A4,4,0,0,0,89,43.84a2.8,2.8,0,0,0-.58-.89,1.92,1.92,0,0,0-.75-.48v-.68l7-1.84V67.22A12.86,12.86,0,0,0,95,70.69c.25.87.62,1.3,1.12,1.3Z"/><path class="cls-1" d="M127,56.52a25.27,25.27,0,0,1-3.41,8.86,19.53,19.53,0,0,1-5,5.45A11.18,11.18,0,0,1,112.68,73a10,10,0,0,1-5.25-1.2A12.75,12.75,0,0,1,103.24,68a16.91,16.91,0,0,1-2.66-5.46,18.53,18.53,0,0,1-.65-6.3A15.68,15.68,0,0,1,101.7,50a17.08,17.08,0,0,1,4.67-5.45,21.6,21.6,0,0,1,8-3.75,23.14,23.14,0,0,1,2.86-.58c1.1-.16,2.21-.28,3.34-.38s2.27-.15,3.38-.2,2.12-.07,3-.07V29a4.31,4.31,0,0,0-.24-1.6,2.85,2.85,0,0,0-.58-.92,1.4,1.4,0,0,0-.75-.41v-.68l7-1.91V67.15a13.4,13.4,0,0,0,.37,3.51c.25.89.63,1.33,1.13,1.33v.68h-8.39V72c.5,0,.88-.44,1.13-1.33a13.4,13.4,0,0,0,.37-3.51Zm0-16.3c-.95,0-2,0-3.1.07s-2.23.12-3.34.21-2.18.2-3.2.34a20.16,20.16,0,0,0-2.76.54,11.57,11.57,0,0,0-5.29,3,14.1,14.1,0,0,0-3.13,4.84,18.71,18.71,0,0,0-1.23,5.86,22.78,22.78,0,0,0,.44,6,21,21,0,0,0,1.88,5.29,10.53,10.53,0,0,0,3.07,3.74,6.58,6.58,0,0,0,4,1.33,8.06,8.06,0,0,0,4.74-1.9,14.49,14.49,0,0,0,3.37-3.69A25.9,25.9,0,0,0,125,61a30.1,30.1,0,0,0,1.53-5.59,33.86,33.86,0,0,0,.51-5.8Z"/><path class="cls-1" d="M147.1,72.67h-8.38V72c.5,0,.87-.44,1.12-1.33a13.34,13.34,0,0,0,.38-3.51V45.4a4.31,4.31,0,0,0-.24-1.6,2.85,2.85,0,0,0-.58-.92,1.41,1.41,0,0,0-.75-.41v-.68l6.95-1.91V67.15a13.34,13.34,0,0,0,.38,3.51c.25.89.62,1.33,1.12,1.33ZM142.94,28a3.14,3.14,0,0,1,3.21,3.21,3.1,3.1,0,0,1-.92,2.28,3.14,3.14,0,0,1-2.29.92,3.14,3.14,0,0,1-3.2-3.2,3.14,3.14,0,0,1,.92-2.29A3.1,3.1,0,0,1,142.94,28Z"/><path class="cls-1" d="M169.66,39.54a18.14,18.14,0,0,1,6.92,1.33,18.35,18.35,0,0,1,5.63,3.58A16.42,16.42,0,0,1,186.09,50a16.12,16.12,0,0,1-3.88,18.13,17.16,17.16,0,0,1-5.87,3.68,18.75,18.75,0,0,1-13.36,0,17.12,17.12,0,0,1-5.86-3.68,16.63,16.63,0,0,1-3.92-5.52,15.61,15.61,0,0,1,0-12.61,16.84,16.84,0,0,1,3.92-5.52,18.28,18.28,0,0,1,12.54-4.91Zm-4.16,1.23a9.29,9.29,0,0,0-4.22,2.42,12.54,12.54,0,0,0-2.86,4.33,16.85,16.85,0,0,0-1.27,5.62,20,20,0,0,0,.72,6.31,19.56,19.56,0,0,0,2.56,5.79,17.63,17.63,0,0,0,3.85,4.23,12.86,12.86,0,0,0,4.63,2.35,9.67,9.67,0,0,0,9.14-2.46A12.64,12.64,0,0,0,180.91,65a16.66,16.66,0,0,0,1.26-5.63,19.88,19.88,0,0,0-.71-6.3,20.15,20.15,0,0,0-2.56-5.8,17.6,17.6,0,0,0-3.85-4.22,12.93,12.93,0,0,0-4.64-2.36A9.3,9.3,0,0,0,165.5,40.77Z"/><path class="cls-1" d="M232.58,25h8.93v.69a5.7,5.7,0,0,0-2.11.47,16.84,16.84,0,0,0-2.35,1.2,20.84,20.84,0,0,0-2.32,1.6,22.61,22.61,0,0,0-2,1.77l-9.61,9.88,14,24.68a21.91,21.91,0,0,0,1.53,2.39c.57.77,1.13,1.46,1.67,2.08s1,1.12,1.47,1.53a3.68,3.68,0,0,0,1,.75v.68H232.17V72c.5,0,.77-.45.82-1.36a9,9,0,0,0-1.23-4L219.22,44.59l-7.77,7.9V67.15a13.4,13.4,0,0,0,.37,3.51c.25.89.63,1.33,1.13,1.33v.68h-8.39V72c.5,0,.88-.44,1.13-1.33a13.4,13.4,0,0,0,.37-3.51V30.48a13.3,13.3,0,0,0-.37-3.51c-.25-.89-.63-1.33-1.13-1.33V25H213v.69c-.5,0-.88.44-1.13,1.33a13.3,13.3,0,0,0-.37,3.51V51.61L231,31.5a8.43,8.43,0,0,0,2.46-4c.22-1.18-.07-1.81-.89-1.9Z"/><path class="cls-1" d="M4.77.72a5.07,5.07,0,0,0-1.86.43A7.5,7.5,0,0,0,1.47,2,6.82,6.82,0,0,0,.21,3.19L0,3.12.47.49H13.1l.46,2.63-.21.07A9,9,0,0,0,12.07,2a7.72,7.72,0,0,0-1.43-.85A5,5,0,0,0,8.79.72H8.21c-.17,0-.3.15-.38.45a4.43,4.43,0,0,0-.13,1.2V14.89a4.3,4.3,0,0,0,.13,1.19c.08.31.21.46.38.46v.23H5.35v-.23c.17,0,.3-.15.38-.46a4.3,4.3,0,0,0,.13-1.19V2.3l0,.07a4.43,4.43,0,0,0-.13-1.2C5.63.87,5.5.72,5.33.72Z"/><path class="cls-1" d="M15.21,16.54c.17,0,.3-.15.39-.46a4.79,4.79,0,0,0,.12-1.19v-13a1.34,1.34,0,0,0-.08-.54.92.92,0,0,0-.2-.32.52.52,0,0,0-.25-.14V.65L17.56,0V11.49A13.67,13.67,0,0,1,17.84,10a11.89,11.89,0,0,1,.45-1.46A7,7,0,0,1,19,7.22a4.5,4.5,0,0,1,.87-1,3.33,3.33,0,0,1,1.73-.8,2.92,2.92,0,0,1,1.68.28A3.46,3.46,0,0,1,24.56,6.9a4.38,4.38,0,0,1,.7,2L26,15.12a1.8,1.8,0,0,0,.21.72,1.42,1.42,0,0,0,.35.43,1.12,1.12,0,0,0,.36.21.81.81,0,0,0,.24.06v.23H25a1.46,1.46,0,0,1-.44-.43,2.12,2.12,0,0,1-.33-1l-.77-6.28a5.81,5.81,0,0,0-.32-1.39,3.49,3.49,0,0,0-.56-1,1.74,1.74,0,0,0-1.31-.74,2.16,2.16,0,0,0-1.41.57,4.84,4.84,0,0,0-1.17,1.72A12.86,12.86,0,0,0,18,10.49a19.4,19.4,0,0,0-.33,2.36c-.05.78-.08,1.46-.08,2a4.3,4.3,0,0,0,.13,1.19c.08.31.21.46.38.46v.23H15.21Z"/><path class="cls-1" d="M35,9.93a12.27,12.27,0,0,0-1.31.48,5,5,0,0,0-1.21.72,4.06,4.06,0,0,0-.93,1,3,3,0,0,0-.48,1.3,2.29,2.29,0,0,0,.12,1.1,1.82,1.82,0,0,0,.65.88,4.39,4.39,0,0,0,2.44.78,6,6,0,0,0,2.62-.53,6.77,6.77,0,0,0,2.28-1.73,6.64,6.64,0,0,0,1.43-2.75l.23.07a7.45,7.45,0,0,1-1.06,2.3,7.91,7.91,0,0,1-1.65,1.76A7.56,7.56,0,0,1,36,16.46a7.13,7.13,0,0,1-2.27.43,6.2,6.2,0,0,1-2.25-.39,6,6,0,0,1-2.06-1.29,5.66,5.66,0,0,1-1.34-1.88,5.39,5.39,0,0,1,0-4.31,5.76,5.76,0,0,1,1.34-1.88,5.84,5.84,0,0,1,2-1.26,6.6,6.6,0,0,1,4.58,0,5.94,5.94,0,0,1,2,1.26,5.65,5.65,0,0,1,1.21,1.65Zm-4,4.72a2.72,2.72,0,0,1-.14-1.25A3,3,0,0,1,31.29,12a4.35,4.35,0,0,1,1-1,6.15,6.15,0,0,1,1.26-.77,9.15,9.15,0,0,1,1.38-.5l2.51-.67a7,7,0,0,0-.83-1.4,5.53,5.53,0,0,0-1.18-1.14A4.28,4.28,0,0,0,34,5.85a3.19,3.19,0,0,0-1.62,0,3.15,3.15,0,0,0-1.61,1,4.49,4.49,0,0,0-.92,1.62,6,6,0,0,0-.32,1.92,7,7,0,0,0,.22,1.87A6,6,0,0,0,30.94,14.65Z"/></g></g></svg>