<svg xmlns="http://www.w3.org/2000/svg" viewBox="0 0 100 100"><defs><style>.cls-1{fill:#58595b;}.cls-2{fill:#fff;}</style></defs><g id="Layer_2" data-name="Layer 2"><g id="Layer_1-2" data-name="Layer 1"><rect class="cls-1" width="100" height="100" rx="50"/><path class="cls-2" d="M9.77,41.73a5.82,5.82,0,0,1,2.76-.79,9.73,9.73,0,0,1,2.77.28,10.51,10.51,0,0,1,2.37.88,6.81,6.81,0,0,1,1.51,1l-1,2.82-.23-.1a5.52,5.52,0,0,0-1.05-2.4,5.91,5.91,0,0,0-2-1.64,5.57,5.57,0,0,0-2.46-.59,4.9,4.9,0,0,0-2.55.73,3.72,3.72,0,0,0-1.32,1.52,2,2,0,0,0-.08,1.43,3.36,3.36,0,0,0,.82,1.32,8.3,8.3,0,0,0,1.38,1.16,13,13,0,0,0,1.62.93,12.43,12.43,0,0,0,1.5.64,14.86,14.86,0,0,1,2.55,1.23,7.68,7.68,0,0,1,2.06,1.78,3.9,3.9,0,0,1,.85,2.26,4.22,4.22,0,0,1-1.11,2.7,6,6,0,0,1-2,1.59,7.17,7.17,0,0,1-2.33.68,9.65,9.65,0,0,1-2.46,0,12.91,12.91,0,0,1-2.34-.56,12.33,12.33,0,0,1-2-.89,6.31,6.31,0,0,1-1.37-1l.72-3h.25a4,4,0,0,0,.82,1.76A8,8,0,0,0,9.17,57a9.43,9.43,0,0,0,2.13,1.14,8.06,8.06,0,0,0,2.3.53,5.42,5.42,0,0,0,2.17-.29,3.57,3.57,0,0,0,1.72-1.3,3,3,0,0,0,.62-1.55,2.68,2.68,0,0,0-.28-1.39,3.79,3.79,0,0,0-.95-1.2,8.84,8.84,0,0,0-1.35-1,13.2,13.2,0,0,0-1.5-.76c-.52-.21-1-.38-1.39-.5a9.68,9.68,0,0,1-2.06-.88,7.37,7.37,0,0,1-1.65-1.27A5.5,5.5,0,0,1,7.86,47a3.75,3.75,0,0,1-.32-1.73,4,4,0,0,1,.58-1.77A6.16,6.16,0,0,1,9.77,41.73Z"/><path class="cls-2" d="M22.84,42.24h2a3.47,3.47,0,0,1-.33,1.48A5.78,5.78,0,0,1,23.7,45a7.08,7.08,0,0,1-1.1,1,5.42,5.42,0,0,1-1.14.68h5.59v.23H24v7.46a8.41,8.41,0,0,0,.28,2.36A3.24,3.24,0,0,0,25,58.08a1.53,1.53,0,0,0,.67.44,1.5,1.5,0,0,0,.73,0,2,2,0,0,0,.7-.28,3,3,0,0,0,.62-.51,4.7,4.7,0,0,0,.65-1,5.94,5.94,0,0,0,.43-1l.23,0a5.48,5.48,0,0,1-.86,1.81,3.69,3.69,0,0,1-1.55,1.24,3.22,3.22,0,0,1-1.66.27,2.71,2.71,0,0,1-1.5-.68,3.75,3.75,0,0,1-1.07-1.54A6.49,6.49,0,0,1,22,54.39V46.93H20.49V46.7a1.68,1.68,0,0,0,.88-.25,2.55,2.55,0,0,0,.76-.8,4.68,4.68,0,0,0,.52-1.38A9.22,9.22,0,0,0,22.84,42.24Z"/><path class="cls-2" d="M41.89,59H38.73v-.25c.19,0,.33-.16.43-.49A5,5,0,0,0,39.3,57V52.49c-.09.57-.19,1.13-.32,1.7a11.61,11.61,0,0,1-.5,1.61,9.43,9.43,0,0,1-.72,1.42,4.73,4.73,0,0,1-.95,1.12,3.71,3.71,0,0,1-2,.89,3.47,3.47,0,0,1-2-.29,3.64,3.64,0,0,1-1.5-1.32,3.87,3.87,0,0,1-.6-2.2V48.75a1.65,1.65,0,0,0-.09-.6,1,1,0,0,0-.22-.35.55.55,0,0,0-.28-.15v-.26l2.61-.69v8.46a4.23,4.23,0,0,0,.32,1.56A3.77,3.77,0,0,0,34,58a1.88,1.88,0,0,0,2.78,0,5.17,5.17,0,0,0,1.28-1.87,13.55,13.55,0,0,0,.75-2.46,21.32,21.32,0,0,0,.38-2.61c.06-.87.1-1.64.1-2.31a1.55,1.55,0,0,0-.09-.59,1.12,1.12,0,0,0-.22-.33.67.67,0,0,0-.28-.18v-.26l2.61-.69V57a5,5,0,0,0,.14,1.31c.1.33.24.49.43.49Z"/><path class="cls-2" d="M53.5,52.93a9.73,9.73,0,0,1-1.28,3.33,7.59,7.59,0,0,1-1.9,2.05,4.26,4.26,0,0,1-2.21.81,3.7,3.7,0,0,1-2-.45,4.77,4.77,0,0,1-1.58-1.41,6.29,6.29,0,0,1-1-2,6.89,6.89,0,0,1-.25-2.37A5.71,5.71,0,0,1,44,50.47a6.44,6.44,0,0,1,1.75-2,8.07,8.07,0,0,1,3-1.41,7.69,7.69,0,0,1,1.07-.22c.41-.06.83-.11,1.26-.14l1.27-.08,1.14,0V42.6a1.58,1.58,0,0,0-.09-.6,1.17,1.17,0,0,0-.22-.35.59.59,0,0,0-.28-.15v-.26l2.61-.72V56.93a5.22,5.22,0,0,0,.14,1.32c.1.33.24.5.43.5V59H52.93v-.25c.19,0,.33-.17.43-.5a5.22,5.22,0,0,0,.14-1.32Zm0-6.13-1.17,0c-.42,0-.84,0-1.26.08s-.82.07-1.2.12a8.66,8.66,0,0,0-1,.21,4.32,4.32,0,0,0-2,1.13,5.06,5.06,0,0,0-1.18,1.82,6.9,6.9,0,0,0-.46,2.2,8.4,8.4,0,0,0,.16,2.26,7.89,7.89,0,0,0,.71,2A3.91,3.91,0,0,0,47.23,58a2.45,2.45,0,0,0,1.51.5,3,3,0,0,0,1.78-.71,5.34,5.34,0,0,0,1.27-1.39,10,10,0,0,0,.94-1.84,11.1,11.1,0,0,0,.57-2.11,12.43,12.43,0,0,0,.2-2.17Z"/><path class="cls-2" d="M61.06,59H57.91v-.25c.18,0,.32-.17.42-.5a5.22,5.22,0,0,0,.14-1.32V48.75a1.65,1.65,0,0,0-.09-.6,1,1,0,0,0-.22-.35.55.55,0,0,0-.28-.15v-.26l2.61-.71V56.93a5.22,5.22,0,0,0,.14,1.32c.1.33.24.5.43.5ZM59.49,42.19a1.21,1.21,0,1,1-.85,2.06,1.22,1.22,0,0,1,0-1.71A1.15,1.15,0,0,1,59.49,42.19Z"/><path class="cls-2" d="M69.54,46.55a6.65,6.65,0,0,1,2.6.5,6.89,6.89,0,0,1,2.12,1.34,6.25,6.25,0,0,1,1.46,2.08,6.09,6.09,0,0,1,0,4.74,6.25,6.25,0,0,1-1.46,2.08,6.63,6.63,0,0,1-2.21,1.38,7.08,7.08,0,0,1-5,0,6.63,6.63,0,0,1-2.21-1.38,6.43,6.43,0,0,1-1.47-2.08,5.87,5.87,0,0,1,0-4.74,6.43,6.43,0,0,1,1.47-2.08,6.89,6.89,0,0,1,2.12-1.34A6.65,6.65,0,0,1,69.54,46.55ZM68,47a3.45,3.45,0,0,0-1.59.91,4.74,4.74,0,0,0-1.08,1.63,6.31,6.31,0,0,0-.47,2.11A7,7,0,0,0,65.11,54a7.33,7.33,0,0,0,1,2.18,6.73,6.73,0,0,0,1.45,1.59,4.62,4.62,0,0,0,1.74.88,3.38,3.38,0,0,0,1.84,0,3.45,3.45,0,0,0,1.59-.91,4.74,4.74,0,0,0,1.08-1.63A6.31,6.31,0,0,0,74.24,54,7,7,0,0,0,74,51.65a7.33,7.33,0,0,0-1-2.18,6.91,6.91,0,0,0-1.44-1.59A4.74,4.74,0,0,0,69.82,47,3.38,3.38,0,0,0,68,47Z"/><path class="cls-2" d="M93.2,41.06h3.35v.26a2.12,2.12,0,0,0-.79.18,6.1,6.1,0,0,0-.88.45,9.78,9.78,0,0,0-.88.6,7.11,7.11,0,0,0-.75.67l-3.62,3.71,5.28,9.28a10.61,10.61,0,0,0,.58.9,8.88,8.88,0,0,0,.63.78c.2.23.39.42.55.58a1.75,1.75,0,0,0,.37.28V59H93v-.25c.19,0,.29-.17.31-.51a3.36,3.36,0,0,0-.46-1.49l-4.72-8.31-2.92,3v5.51a5.22,5.22,0,0,0,.14,1.32c.1.33.24.5.43.5V59H82.66v-.25c.19,0,.33-.17.43-.5a5.22,5.22,0,0,0,.14-1.32V43.14a5.16,5.16,0,0,0-.14-1.32c-.1-.33-.24-.5-.43-.5v-.26h3.16v.26c-.19,0-.33.17-.43.5a5.16,5.16,0,0,0-.14,1.32v7.94l7.36-7.56A3.16,3.16,0,0,0,93.53,42c.09-.45,0-.69-.33-.72Z"/><path class="cls-2" d="M7.54,32a1.94,1.94,0,0,0-.7.16,3.35,3.35,0,0,0-.54.32,2.89,2.89,0,0,0-.47.45l-.08,0,.17-1h4.75l.18,1-.08,0a5.11,5.11,0,0,0-.48-.45,3.35,3.35,0,0,0-.54-.32,1.94,1.94,0,0,0-.7-.16H8.84c-.07,0-.12.06-.15.17a1.87,1.87,0,0,0,0,.45v4.71a1.87,1.87,0,0,0,0,.45c0,.11.08.17.15.17V38H7.76V37.9c.06,0,.11-.06.14-.17a1.47,1.47,0,0,0,0-.45V32.57a1.92,1.92,0,0,0,0-.45c0-.11-.08-.17-.15-.17Z"/><path class="cls-2" d="M11.47,37.9c.06,0,.11-.06.14-.17a1.87,1.87,0,0,0,.05-.45V32.39a.58.58,0,0,0,0-.21.35.35,0,0,0-.07-.11.27.27,0,0,0-.1-.06v-.08l.89-.25V36a4.21,4.21,0,0,1,.11-.58,3.09,3.09,0,0,1,.17-.54,2.39,2.39,0,0,1,.24-.48A1.77,1.77,0,0,1,13.2,34a1.26,1.26,0,0,1,.65-.31,1.11,1.11,0,0,1,.63.11,1.34,1.34,0,0,1,.5.45,1.77,1.77,0,0,1,.27.74l.28,2.36a.86.86,0,0,0,.08.27.75.75,0,0,0,.13.16.7.7,0,0,0,.14.08l.09,0V38h-.84a.53.53,0,0,1-.16-.17.82.82,0,0,1-.13-.37l-.28-2.36a2.32,2.32,0,0,0-.13-.52,1.51,1.51,0,0,0-.21-.38.62.62,0,0,0-.49-.27.74.74,0,0,0-.53.21,1.74,1.74,0,0,0-.44.65,5.48,5.48,0,0,0-.26.84,7,7,0,0,0-.12.89c0,.3,0,.55,0,.77a1.87,1.87,0,0,0,.05.45c0,.11.08.17.14.17V38H11.47Z"/><path class="cls-2" d="M18.89,35.42a3.58,3.58,0,0,0-.49.17,2.35,2.35,0,0,0-.46.28,1.6,1.6,0,0,0-.35.38,1.1,1.1,0,0,0-.17.49.82.82,0,0,0,0,.41.78.78,0,0,0,.24.33,1.67,1.67,0,0,0,.92.29,2.28,2.28,0,0,0,1-.2,2.48,2.48,0,0,0,.85-.65,2.32,2.32,0,0,0,.54-1l.09,0a2.88,2.88,0,0,1-.4.87,2.79,2.79,0,0,1-.62.66,2.92,2.92,0,0,1-.77.43,2.84,2.84,0,0,1-.86.16,2.27,2.27,0,0,1-.85-.14,2.57,2.57,0,0,1-.77-.49,2.14,2.14,0,0,1-.5-.71,1.9,1.9,0,0,1-.17-.81,2,2,0,0,1,.17-.81,2.1,2.1,0,0,1,.5-.7,2.29,2.29,0,0,1,.75-.48,2.57,2.57,0,0,1,1.73,0,2.29,2.29,0,0,1,.75.48,2,2,0,0,1,.45.62Zm-1.51,1.77a1.05,1.05,0,0,1-.05-.47,1.11,1.11,0,0,1,.18-.51,2,2,0,0,1,.36-.4,2.55,2.55,0,0,1,.48-.29,3.2,3.2,0,0,1,.52-.18l.94-.26a3.1,3.1,0,0,0-.31-.52,2,2,0,0,0-.45-.43,1.48,1.48,0,0,0-.54-.25,1.24,1.24,0,0,0-1.21.38,1.72,1.72,0,0,0-.35.6,2.86,2.86,0,0,0-.12.73,2.63,2.63,0,0,0,.09.7A2.25,2.25,0,0,0,17.38,37.19Z"/></g></g></svg>